<svg width="104" height="61" viewBox="0 0 104 61" fill="none" xmlns="http://www.w3.org/2000/svg">
<path d="M3.67059 34.16H15.9059C17.9331 34.16 19.5765 35.7986 19.5765 37.82C19.5765 39.8414 17.9331 41.48 15.9059 41.48H3.67059C1.64338 41.48 0 39.8414 0 37.82C0 35.7986 1.64338 34.16 3.67059 34.16Z" fill="url(#paint0_linear_11_51)"/>
<path fill-rule="evenodd" clip-rule="evenodd" d="M104 30.5C104 47.3447 90.3052 61 73.4118 61C67.291 61 61.5901 59.2074 56.8083 56.12H39.1529C37.1257 56.12 35.4824 54.4814 35.4824 52.46C35.4824 50.4386 37.1257 48.8 39.1529 48.8H45.2706C45.5065 48.8 45.7371 48.7778 45.9606 48.7354C46.7845 48.5792 47.5108 48.1483 48.0402 47.542C48.6014 46.8992 48.9412 46.0592 48.9412 45.14C48.9412 43.1186 47.2978 41.48 45.2706 41.48H44.8656H39.4779H28.1412C26.114 41.48 24.4706 39.8414 24.4706 37.82C24.4706 35.7986 26.114 34.16 28.1412 34.16H37.9415H41.6C42.0993 34.16 42.5754 34.0606 43.0093 33.8805C44.3371 33.3296 45.2706 32.0235 45.2706 30.5C45.2706 28.9765 44.3371 27.6705 43.0093 27.1195C42.5754 26.9394 42.0993 26.84 41.6 26.84H40.1313H20.8C18.7728 26.84 17.1294 25.2014 17.1294 23.18C17.1294 21.1586 18.7728 19.52 20.8 19.52H44.8656C49.2863 8.10065 60.4003 0 73.4118 0C90.3052 0 104 13.6553 104 30.5ZM61.1765 34.16C63.2037 34.16 64.8471 32.5214 64.8471 30.5C64.8471 28.4786 63.2037 26.84 61.1765 26.84C59.1493 26.84 57.5059 28.4786 57.5059 30.5C57.5059 32.5214 59.1493 34.16 61.1765 34.16ZM73.4118 35.82C75.439 35.82 78 34.1814 78 32.16C78 30.1386 75.439 28.5 73.4118 28.5C71.3846 28.5 69 30.1386 69 32.16C69 34.1814 71.3846 35.82 73.4118 35.82ZM85.6471 34.16C87.6743 34.16 89.3176 32.5214 89.3176 30.5C89.3176 28.4786 87.6743 26.84 85.6471 26.84C83.6198 26.84 81.9765 28.4786 81.9765 30.5C81.9765 32.5214 83.6198 34.16 85.6471 34.16Z" fill="url(#paint1_linear_11_51)"/>
<defs>
<linearGradient id="paint0_linear_11_51" x1="0" y1="0" x2="53.2412" y2="90.772" gradientUnits="userSpaceOnUse">
<stop stop-color="#FCCF31"/>
<stop offset="1" stop-color="#F55555"/>
</linearGradient>
<linearGradient id="paint1_linear_11_51" x1="0" y1="0" x2="53.2412" y2="90.772" gradientUnits="userSpaceOnUse">
<stop stop-color="#FCCF31"/>
<stop offset="1" stop-color="#F55555"/>
</linearGradient>
</defs>
</svg>
